<?xml version="1.0" standalone="no"?>
<!DOCTYPE svg PUBLIC "-//W3C//DTD SVG 20010904//EN"
 "http://www.w3.org/TR/2001/REC-SVG-20010904/DTD/svg10.dtd">
<svg version="1.0" xmlns="http://www.w3.org/2000/svg"
 width="1024.000000pt" height="1024.000000pt" viewBox="0 0 1024.000000 1024.000000"
 preserveAspectRatio="xMidYMid meet">

<g transform="translate(0.000000,1024.000000) scale(0.100000,-0.100000)"
fill="#000000" stroke="none">
<path d="M6018 9129 c-27 -4 -90 -21 -140 -38 -51 -16 -145 -44 -208 -61 -199
-54 -247 -71 -328 -117 -90 -51 -246 -175 -308 -246 -90 -102 -234 -434 -249
-575 -4 -35 -10 -60 -15 -55 -4 4 -22 55 -39 113 -95 308 -244 494 -559 703
-244 161 -270 177 -324 201 -133 59 -221 53 -300 -22 -25 -23 -36 -25 -165
-32 -77 -3 -144 -10 -151 -14 -7 -4 -22 -26 -33 -49 -33 -65 -78 -116 -120
-137 -83 -43 -156 -133 -185 -227 -9 -27 -26 -132 -39 -235 -13 -103 -34 -224
-45 -268 -16 -64 -21 -114 -21 -228 -1 -167 0 -171 53 -307 48 -121 153 -270
279 -396 l86 -87 -69 24 c-98 33 -275 54 -454 54 -135 0 -165 -3 -268 -29
-136 -35 -309 -110 -398 -175 -35 -24 -95 -78 -135 -118 -62 -63 -80 -90 -134
-203 -53 -111 -72 -141 -135 -207 -52 -55 -75 -87 -80 -112 -13 -75 21 -126
112 -167 34 -16 65 -33 69 -38 3 -6 -10 -42 -30 -80 -41 -82 -45 -133 -15
-189 11 -20 102 -121 202 -224 207 -211 288 -271 467 -345 126 -53 261 -87
431 -109 135 -17 234 -14 373 12 100 19 357 101 380 122 26 24 31 8 9 -35 -29
-56 -71 -218 -78 -298 -24 -270 123 -640 349 -883 49 -52 77 -90 77 -104 0
-22 -39 -262 -59 -363 -37 -187 -87 -353 -131 -430 -15 -27 -42 -90 -60 -140
-18 -49 -40 -101 -50 -115 -9 -14 -27 -50 -39 -80 -13 -30 -31 -66 -41 -80
-10 -14 -34 -59 -55 -100 -21 -41 -63 -118 -93 -170 -30 -52 -69 -120 -87
-150 -17 -30 -48 -77 -69 -104 -20 -27 -44 -62 -53 -79 -32 -62 -278 -368
-413 -512 -36 -39 -78 -90 -95 -115 -28 -40 -30 -50 -29 -129 1 -97 18 -194
41 -229 11 -18 22 -22 46 -20 36 3 88 60 247 273 105 140 133 180 426 600 35
50 98 149 140 220 42 72 87 146 99 165 35 56 71 122 85 160 8 19 32 68 54 109
36 65 62 92 210 225 179 160 257 225 346 286 30 21 70 52 88 70 31 29 32 33
19 53 -23 35 -67 33 -159 -8 -167 -74 -234 -110 -276 -149 -23 -21 -45 -36
-49 -33 -3 4 -1 12 4 19 10 12 84 241 133 408 19 63 54 153 67 169 1 2 11 -3
21 -12 35 -32 81 -45 129 -36 67 13 107 43 152 112 64 98 71 107 86 107 8 0
15 -4 15 -9 0 -19 122 -162 151 -177 37 -19 72 -14 148 21 104 49 358 254 442
357 23 29 88 98 144 153 162 159 226 270 264 462 52 258 25 446 -94 671 -18
34 -30 62 -27 62 3 0 32 -21 64 -46 67 -53 176 -105 376 -180 204 -76 336 -90
577 -58 120 15 272 59 330 94 16 10 61 34 98 54 152 80 283 189 436 363 40 44
89 92 109 106 20 13 58 44 85 69 42 39 47 49 47 87 0 37 -6 47 -51 91 -49 48
-51 51 -37 72 9 13 51 43 94 68 71 41 80 49 93 88 12 40 11 49 -18 142 -72
223 -151 319 -405 487 -88 58 -187 118 -220 134 -161 75 -448 115 -646 90 -55
-6 -113 -17 -130 -22 -52 -19 -52 -5 -1 34 64 49 156 141 192 194 40 58 149
273 187 370 51 131 79 396 56 533 -12 70 -57 206 -91 274 -25 50 -39 96 -49
163 -24 160 -72 266 -136 299 -37 19 -97 14 -196 -16 -92 -29 -111 -12 -126
113 -13 106 -57 135 -178 116z m81 -87 c6 -11 15 -48 20 -83 6 -35 19 -75 29
-89 31 -41 84 -72 115 -67 26 3 28 1 24 -22 -5 -24 -4 -25 9 -6 8 10 14 23 14
27 0 16 91 48 134 48 31 0 48 -6 64 -23 53 -57 83 -235 57 -342 -8 -33 -14
-73 -14 -90 1 -16 8 5 17 48 8 42 18 77 22 77 4 0 12 -17 18 -39 7 -21 25 -63
41 -93 61 -113 76 -187 75 -358 0 -183 -11 -233 -55 -256 -34 -17 -149 -103
-149 -110 0 -6 -5 -9 90 55 41 27 76 46 78 42 6 -18 -90 -247 -139 -328 -143
-239 -216 -304 -549 -492 -33 -19 -86 -56 -118 -83 -31 -26 -73 -59 -92 -73
-19 -13 -60 -45 -90 -70 -124 -101 -198 -155 -213 -155 -27 0 -20 19 16 41 17
11 50 40 72 66 22 25 59 66 83 91 23 24 42 46 42 49 0 5 -151 -97 -178 -121
-20 -17 -24 -18 -32 -6 -9 13 -10 13 -10 0 0 -8 -13 -21 -28 -28 -16 -6 -41
-25 -58 -40 -30 -28 -125 -92 -138 -92 -4 0 -20 -10 -36 -22 -16 -12 -32 -19
-36 -16 -3 3 20 23 50 43 94 62 237 211 292 303 1 2 21 -6 43 -18 33 -16 46
-18 62 -9 44 23 64 131 34 188 -16 32 -33 41 -76 41 -16 0 -29 3 -29 8 0 4 32
48 71 97 77 98 179 247 179 261 0 5 -14 -13 -32 -41 -17 -27 -63 -88 -102
-135 -39 -46 -80 -96 -91 -109 -11 -14 -36 -41 -55 -61 -19 -19 -33 -38 -32
-42 1 -5 -5 -8 -13 -8 -8 0 -21 -13 -30 -29 -8 -16 -24 -32 -35 -36 -11 -3
-29 -18 -40 -32 -11 -14 -23 -24 -26 -21 -2 3 -20 -8 -39 -25 -27 -24 -32 -33
-23 -44 9 -11 -5 -30 -68 -91 -44 -42 -104 -97 -134 -122 -45 -37 -51 -40 -32
-15 98 128 175 252 212 344 l26 65 46 1 c53 1 75 16 86 59 11 41 -1 90 -32
134 -14 20 -22 40 -17 46 4 6 22 38 40 71 38 71 13 44 -31 -32 -26 -45 -34
-53 -60 -53 -59 0 -95 -36 -112 -110 -3 -14 -16 -36 -29 -50 -12 -14 -53 -69
-91 -122 -37 -54 -72 -98 -78 -98 -5 0 -7 7 -4 16 3 9 6 22 6 30 0 9 4 13 9 9
16 -9 25 16 10 26 -12 8 -11 11 2 22 30 23 57 135 34 144 -10 3 -7 15 11 46
13 23 24 47 23 52 0 6 -7 -3 -15 -18 -25 -45 -27 -25 -6 59 18 76 29 132 53
274 10 63 12 66 50 82 44 18 59 47 59 109 0 52 -14 78 -53 94 -35 14 -106 7
-131 -14 -43 -36 -44 -121 -2 -160 22 -21 23 -24 10 -79 -7 -31 -21 -104 -30
-162 -14 -95 -35 -189 -51 -230 -3 -8 -7 -19 -7 -25 -4 -37 -41 -145 -50 -145
-32 1 -39 18 -32 86 10 109 15 144 21 154 3 6 2 10 -4 10 -13 0 -26 -47 -47
-173 -9 -59 -19 -105 -21 -103 -2 2 1 48 6 102 6 72 5 127 -5 204 -8 62 -14
226 -16 400 -2 245 1 312 15 393 43 238 132 440 259 588 57 67 209 190 273
222 44 21 331 117 353 117 10 0 79 20 153 44 150 50 193 56 208 28z m-2313
-47 c58 -24 220 -123 335 -205 276 -196 317 -236 419 -406 80 -136 174 -408
206 -599 13 -80 25 -545 13 -545 -12 0 -27 49 -22 71 3 13 2 21 -2 17 -10 -9
-34 -168 -35 -225 0 -24 -4 -43 -10 -43 -6 0 -10 36 -9 88 0 107 -10 234 -20
245 -4 4 -7 -75 -8 -175 0 -183 -7 -314 -22 -418 l-8 -55 -3 55 c-1 30 -3 70
-5 88 -1 17 1 32 6 32 5 0 4 12 -1 26 -13 32 -13 43 0 24 7 -11 10 -12 10 -2
0 7 -7 21 -16 29 -9 9 -14 26 -11 40 2 12 1 23 -3 23 -5 0 -11 24 -15 53 -4
28 -12 63 -17 76 -7 20 -4 29 17 51 45 47 53 131 15 165 -47 42 -128 32 -152
-20 -17 -37 -28 -31 -28 15 0 22 -5 40 -10 40 -6 0 -8 -10 -6 -22 3 -13 12
-70 21 -128 9 -58 20 -133 26 -167 5 -34 11 -89 14 -123 3 -34 7 -65 9 -69 10
-16 15 -102 6 -96 -6 3 -10 12 -10 19 0 7 -9 42 -20 76 -11 34 -20 80 -20 100
0 21 -6 41 -12 43 -10 4 -9 8 2 16 12 9 12 11 -3 17 -12 4 -17 17 -17 43 0 20
-4 41 -9 47 -15 16 -23 94 -9 94 7 0 6 5 -4 13 -8 6 -18 21 -21 32 -3 11 -15
55 -27 99 -26 99 -48 214 -42 221 3 3 13 5 23 5 64 0 64 168 0 217 -43 33
-116 -3 -126 -61 -7 -33 -1 -61 30 -146 9 -25 23 -79 30 -120 7 -41 22 -122
33 -180 12 -58 30 -152 41 -209 l19 -104 -26 -22 c-19 -16 -23 -27 -18 -41 5
-10 10 -36 11 -58 2 -21 8 -43 14 -49 6 -6 11 -15 11 -20 0 -5 -9 2 -20 16
-11 14 -20 28 -20 33 0 4 -17 28 -37 53 -50 62 -50 61 -76 99 -12 18 -71 103
-130 190 -59 86 -126 189 -149 227 -22 39 -45 75 -51 80 -14 14 102 -204 125
-235 55 -74 118 -181 118 -199 0 -12 11 -42 25 -67 25 -45 33 -80 15 -69 -5 3
-7 12 -3 20 3 9 -1 15 -10 15 -16 0 -147 254 -147 284 0 8 -5 18 -10 21 -18
11 0 -42 50 -149 26 -56 56 -121 68 -146 11 -25 36 -74 56 -108 20 -35 36 -70
36 -78 0 -8 9 -22 20 -31 25 -22 28 -68 3 -59 -15 6 -15 4 2 -14 10 -11 14
-20 8 -20 -5 0 -19 10 -30 23 -27 29 -191 279 -223 339 -24 46 -24 46 -5 81
16 31 17 41 7 75 -19 64 -41 84 -98 89 -41 4 -52 2 -68 -16 l-18 -20 -45 47
-45 47 34 -43 c44 -59 46 -62 52 -102 8 -46 40 -98 69 -109 12 -5 29 -22 37
-37 8 -16 38 -69 67 -117 29 -48 64 -109 77 -136 14 -26 43 -70 65 -99 23 -28
41 -53 41 -55 0 -2 15 -20 33 -39 50 -54 100 -118 90 -118 -4 0 -52 43 -105
95 -73 70 -96 99 -92 112 4 12 3 14 -3 6 -7 -9 -17 -8 -42 8 -44 26 -47 21
-11 -18 17 -18 30 -41 30 -52 0 -12 4 -21 10 -21 9 0 8 -56 -1 -64 -2 -2 -40
20 -84 50 -44 29 -86 53 -92 53 -7 1 -13 6 -13 11 0 6 -6 10 -13 10 -7 0 -28
12 -47 28 -19 15 -47 33 -61 41 -15 7 -38 24 -52 37 -14 13 -28 24 -30 24 -7
0 -220 145 -269 182 -163 125 -282 239 -343 329 -16 24 -42 60 -56 79 -35 46
-78 156 -91 233 -6 34 -11 118 -11 187 -1 101 4 141 22 210 22 78 29 129 45
324 8 91 45 194 89 248 20 24 65 61 100 81 42 25 72 51 88 77 66 109 51 100
176 104 75 3 117 0 127 -7 9 -7 31 -34 51 -62 45 -65 46 -50 0 18 -37 55 -42
67 -24 67 6 0 32 15 58 34 25 18 53 36 61 39 29 11 91 7 126 -8z m504 -1219
c0 -8 -4 -18 -10 -21 -5 -3 -10 3 -10 14 0 12 5 21 10 21 6 0 10 -6 10 -14z
m210 -577 c0 -18 -1 -18 -20 1 -11 11 -20 22 -20 24 0 2 9 2 20 -1 11 -3 20
-14 20 -24z m274 -8 c5 -27 4 -31 -8 -22 -7 6 -11 22 -8 36 6 31 7 30 16 -14z
m2 -66 c1 -8 -2 -15 -7 -15 -5 0 -9 10 -9 22 0 23 12 17 16 -7z m0 -62 c-11
-11 -19 6 -11 24 8 17 8 17 12 0 3 -10 2 -21 -1 -24z m284 -20 c-11 -17 -11
-17 -6 0 3 10 6 24 7 30 0 9 2 9 5 0 3 -7 0 -20 -6 -30z m-2075 -9 c95 -15
257 -61 355 -100 25 -10 133 -77 240 -149 107 -72 239 -159 293 -193 90 -57
98 -65 93 -88 -4 -13 -3 -24 2 -24 14 0 97 -78 90 -85 -6 -6 -47 13 -58 26 -3
4 -21 17 -40 30 -69 47 -110 82 -110 93 0 6 -15 20 -32 31 -18 10 -38 26 -45
34 -11 14 -12 14 -13 -2 0 -10 7 -20 15 -23 8 -4 15 -12 15 -20 0 -8 7 -14 15
-14 9 0 18 -7 21 -15 4 -8 10 -12 15 -9 5 3 9 0 9 -5 0 -17 -16 -13 -72 20
-62 37 -102 53 -93 39 3 -6 12 -10 19 -10 8 0 19 -7 27 -16 7 -8 36 -27 63
-41 28 -14 62 -36 75 -49 13 -13 32 -24 43 -24 10 0 21 -7 24 -15 4 -8 15 -15
25 -15 10 0 19 -3 19 -7 0 -5 14 -16 31 -26 18 -10 29 -20 27 -23 -7 -6 -75
21 -191 75 -49 23 -91 41 -95 41 -4 1 -25 9 -47 20 -45 22 -121 26 -160 8 -27
-12 -55 -54 -55 -83 0 -20 -18 -19 -163 5 -65 12 -124 19 -131 17 -6 -2 9 -7
34 -11 116 -19 245 -49 249 -59 8 -21 53 -56 82 -62 18 -4 41 -1 60 9 18 9 43
16 57 16 28 0 235 -40 242 -47 5 -5 -96 3 -178 13 -62 8 -189 -22 -171 -40 3
-3 57 -8 120 -11 151 -8 199 -14 199 -26 0 -6 -9 -7 -21 -4 l-21 7 21 -21 c25
-25 33 -27 24 -5 -4 12 -2 15 8 12 8 -3 13 -10 12 -15 -1 -5 7 -9 18 -9 10 0
19 7 19 14 0 19 50 7 67 -15 8 -10 13 -12 13 -5 0 7 7 12 15 12 21 0 19 -20
-2 -21 -61 -5 -313 3 -393 12 -163 18 -172 19 -181 25 -5 3 -9 3 -9 0 0 -19
74 -32 275 -50 91 -8 135 -18 135 -28 0 -6 -9 -8 -20 -5 -12 3 -20 0 -20 -7 0
-7 -37 -32 -82 -55 -132 -67 -182 -94 -212 -118 -16 -13 -35 -23 -42 -23 -15
0 -19 -16 -6 -23 4 -3 23 2 42 12 19 9 62 27 95 40 33 12 98 38 145 57 166 66
207 78 268 79 17 0 32 4 32 9 0 5 8 2 18 -6 11 -11 33 -15 65 -13 26 1 47 -2
47 -7 0 -5 -17 -9 -37 -8 -69 3 -76 2 -70 -20 3 -13 0 -20 -10 -20 -9 0 -12
-6 -9 -18 5 -14 -3 -23 -34 -38 -22 -10 -40 -22 -40 -25 0 -4 -17 -18 -37 -32
-21 -14 -52 -38 -69 -54 -16 -15 -50 -41 -73 -58 -24 -16 -38 -31 -32 -33 6
-2 17 2 24 10 8 7 33 24 56 38 23 14 58 37 78 53 20 15 40 27 44 27 12 0 11
-17 -1 -25 -22 -14 -8 -24 29 -20 64 6 56 -16 -30 -80 -43 -32 -136 -117 -206
-189 -189 -194 -305 -262 -583 -342 -76 -23 -104 -25 -270 -26 -181 0 -235 6
-365 43 -186 53 -291 99 -402 175 -70 48 -153 122 -153 136 0 4 15 8 33 9 30
0 30 1 -14 15 -31 9 -70 36 -121 81 -124 112 -178 183 -178 233 0 25 33 92 54
109 19 16 36 74 29 100 -2 10 -14 23 -26 29 -12 5 -52 24 -88 41 -95 44 -97
49 -55 115 19 30 51 72 70 93 19 22 55 81 81 133 93 190 94 191 194 278 257
222 589 300 996 236z m1365 -19 c0 -8 -2 -15 -4 -15 -2 0 -6 7 -10 15 -3 8 -1
15 4 15 6 0 10 -7 10 -15z m337 -52 c-2 -16 -4 -5 -4 22 0 28 2 40 4 28 2 -13
2 -35 0 -50z m87 52 c-4 -8 -8 -15 -10 -15 -2 0 -4 7 -4 15 0 8 4 15 10 15 5
0 7 -7 4 -15z m440 -31 c-66 -155 -81 -179 -239 -379 -31 -38 -5 26 29 74 52
73 86 125 96 146 5 11 20 36 32 56 13 20 39 62 58 92 39 64 49 68 24 11z
m-890 18 c3 -5 -1 -9 -9 -9 -8 0 -15 4 -15 9 0 4 4 8 9 8 6 0 12 -4 15 -8z
m2573 -28 c132 -27 240 -74 356 -153 40 -26 99 -66 132 -87 81 -53 181 -148
221 -210 18 -28 50 -100 70 -159 l37 -109 -24 -19 c-22 -18 -35 -19 -144 -14
-132 6 -128 1 10 -11 69 -7 85 -11 68 -18 -34 -15 -133 -112 -133 -131 0 -26
24 -68 70 -123 l40 -47 -38 -39 c-21 -21 -55 -50 -76 -64 -47 -31 -70 -54
-107 -106 -32 -44 -178 -181 -243 -228 -32 -23 -54 -31 -101 -34 -33 -2 -64
-8 -68 -12 -5 -4 12 -5 38 -2 38 4 47 2 44 -9 -6 -20 -240 -135 -338 -165
-195 -60 -476 -51 -698 22 -122 40 -174 67 -322 168 -57 39 -119 81 -139 93
-36 22 -141 113 -142 123 0 3 -43 50 -95 105 -89 94 -128 147 -68 90 15 -14
32 -25 38 -25 5 0 4 4 -4 9 -7 5 -12 14 -9 22 6 19 50 -32 44 -53 -2 -10 0
-16 5 -12 5 3 9 12 9 20 0 8 5 14 12 14 9 0 9 3 0 12 -19 19 -14 29 8 16 11
-7 20 -18 20 -25 0 -7 6 -13 13 -13 25 0 27 13 6 36 l-22 23 36 -2 c20 -2 47
-12 62 -25 30 -26 37 -28 29 -7 -4 8 -12 15 -20 15 -8 0 -13 5 -12 10 3 12
-58 59 -110 86 -21 10 -32 23 -30 33 4 17 18 19 55 7 18 -6 22 -4 17 8 -3 9
-4 16 -2 16 10 0 222 -89 333 -140 79 -36 152 -62 139 -51 -5 5 -49 30 -99 56
-49 26 -98 54 -107 62 -9 8 -21 12 -27 9 -5 -4 -12 -2 -16 4 -3 5 -1 10 4 10
6 0 11 5 11 10 0 6 -9 10 -19 10 -11 0 -23 5 -27 11 -3 6 -25 19 -49 29 -48
21 -66 40 -38 41 10 0 13 3 6 6 -23 9 -15 34 10 32 44 -4 57 1 57 21 0 26 -7
25 -31 -2 -10 -13 -18 -18 -19 -12 0 7 -9 14 -19 17 -13 3 -18 0 -15 -8 3 -7
0 -16 -6 -20 -7 -4 -14 2 -17 14 -4 16 -11 20 -24 16 -11 -4 -19 -2 -19 4 0 6
-12 11 -27 11 -16 0 -34 4 -42 9 -11 7 -6 11 20 15 19 3 41 5 49 4 8 0 65 2
125 5 123 7 242 -1 484 -32 90 -12 166 -20 168 -18 5 6 -36 14 -197 39 -226
35 -254 39 -282 39 -16 0 -28 4 -28 10 0 6 -8 9 -17 8 -10 -1 -21 0 -25 1 -17
5 -29 8 -48 9 -11 0 -20 8 -20 16 0 12 -15 13 -87 8 -90 -6 -115 2 -33 10 25
2 82 10 126 17 79 13 83 12 109 -8 71 -56 185 7 165 91 -14 57 -21 65 -68 81
-57 20 -101 20 -116 1 -6 -7 -29 -16 -51 -19 -22 -2 -53 -9 -68 -15 -34 -13
-89 -15 -68 -2 19 12 -3 24 -29 16 -11 -4 -20 -4 -20 -1 0 7 108 76 118 76 4
0 54 43 111 94 180 165 434 320 595 363 140 37 174 44 276 53 125 11 214 5
357 -26z m-1401 -47 c-26 -90 -127 -211 -256 -308 -28 -21 -57 -39 -62 -39 -9
0 31 49 79 98 28 28 83 100 83 107 0 5 24 34 53 66 28 31 66 75 82 97 17 22
32 38 33 37 2 -2 -3 -28 -12 -58z m-1335 39 c5 3 9 0 9 -6 0 -15 -23 -7 -26 8
-1 7 0 8 3 2 2 -5 9 -8 14 -4z m769 -28 c0 -7 -5 -20 -10 -28 -9 -13 -11 -13
-19 0 -6 9 -6 19 1 27 13 17 28 17 28 1z m-83 -30 c-3 -8 -6 -5 -6 6 -1 11 2
17 5 13 3 -3 4 -12 1 -19z m-636 -24 c14 -37 6 -39 -15 -4 -10 17 -13 30 -6
30 6 0 15 -12 21 -26z m24 -154 c3 -5 1 -10 -4 -10 -6 0 -11 5 -11 10 0 6 2
10 4 10 3 0 8 -4 11 -10z m-117 -178 c35 -37 39 -53 6 -24 -11 9 -33 25 -49
34 -37 21 -44 38 -13 31 13 -3 38 -22 56 -41z m1332 -22 c0 -5 -5 -10 -11 -10
-5 0 -7 5 -4 10 3 6 8 10 11 10 2 0 4 -4 4 -10z m-1180 -10 c0 -5 -2 -10 -4
-10 -3 0 -8 5 -11 10 -3 6 -1 10 4 10 6 0 11 -4 11 -10z m464 -153 c-23 -72
-63 -161 -69 -155 -3 2 9 45 25 94 17 49 36 109 42 134 l12 45 4 -33 c2 -18
-4 -56 -14 -85z m-999 60 c28 -15 64 -36 80 -46 17 -10 44 -21 60 -26 17 -4
25 -9 19 -11 -13 -5 -204 23 -212 31 -8 8 -12 87 -4 83 4 -2 30 -16 57 -31z
m1150 -9 c-8 -48 -40 -118 -54 -118 -5 0 -1 17 9 38 10 20 21 53 25 72 8 38
13 50 21 50 3 0 3 -19 -1 -42z m-739 -6 c-4 -3 -14 2 -24 12 -16 18 -16 18 6
6 13 -6 21 -14 18 -18z m312 -122 l-1 -45 -7 50 c-5 28 -8 66 -8 85 l0 35 9
-40 c4 -22 8 -60 7 -85z m-368 79 c0 -6 -4 -7 -10 -4 -5 3 -10 11 -10 16 0 6
5 7 10 4 6 -3 10 -11 10 -16z m911 -60 c-11 -15 -21 -34 -21 -41 0 -17 -58
-88 -72 -88 -6 0 -6 6 2 15 7 8 9 15 4 15 -4 0 -1 6 8 13 9 6 25 28 35 47 26
50 57 90 62 78 2 -5 -6 -23 -18 -39z m652 11 c-8 -8 -136 -20 -128 -12 2 2 30
9 62 16 58 12 82 11 66 -4z m-1000 -135 c-3 -9 -8 -14 -10 -11 -3 3 -2 9 2 15
9 16 15 13 8 -4z m-753 -45 c0 -5 -2 -10 -4 -10 -3 0 -8 5 -11 10 -3 6 -1 10
4 10 6 0 11 -4 11 -10z m257 -106 c-3 -3 -12 -4 -19 -1 -8 3 -5 6 6 6 11 1 17
-2 13 -5z m1057 -1 c4 -5 11 -8 14 -8 4 -1 25 -4 46 -9 27 -5 41 -4 46 4 6 9
13 9 26 1 18 -10 18 -10 -3 -11 -14 0 -23 -6 -23 -15 0 -19 -11 -19 -55 -1
-18 8 -36 12 -38 9 -9 -8 -48 17 -42 28 7 11 19 12 29 2z m103 -103 c17 -13
20 -20 11 -20 -8 0 -23 9 -33 20 -10 11 -15 20 -11 20 4 0 19 -9 33 -20z
m-1176 -47 c2 1 -4 -6 -14 -16 -16 -17 -20 -17 -42 -3 -18 12 -25 12 -28 3 -2
-6 -8 -9 -12 -4 -12 10 11 31 27 25 18 -7 34 -5 30 5 -1 4 6 3 17 -2 10 -6 20
-9 22 -8z m1109 13 c0 -3 -4 -8 -10 -11 -5 -3 -10 -1 -10 4 0 6 5 11 10 11 6
0 10 -2 10 -4z m143 -9 c3 -7 -5 -12 -19 -12 -13 0 -24 5 -24 10 0 15 37 16
43 2z m-723 -61 c0 -3 -4 -8 -10 -11 -5 -3 -10 -1 -10 4 0 6 5 11 10 11 6 0
10 -2 10 -4z m192 -8 c8 -7 18 -21 21 -30 5 -15 3 -16 -12 -6 -21 13 -45 48
-33 48 4 0 15 -6 24 -12z m203 -14 c11 -17 12 -25 4 -22 -6 2 -16 14 -20 26
-11 29 -5 28 16 -4z m76 -36 c12 -12 14 -18 6 -22 -7 -2 -2 -5 9 -5 29 -1 217
-197 281 -292 73 -109 129 -219 160 -318 25 -78 28 -99 26 -221 -2 -182 -22
-291 -74 -399 -36 -73 -57 -101 -141 -184 -55 -54 -106 -96 -113 -93 -8 3 -20
-12 -31 -37 -25 -56 -245 -275 -351 -351 -85 -59 -171 -100 -189 -88 -6 4 -35
41 -66 82 -78 105 -103 130 -133 130 -42 0 -92 -41 -124 -100 -71 -132 -156
-174 -219 -108 -158 166 -215 265 -243 425 -6 34 -13 63 -16 63 -7 0 6 -72 27
-160 11 -41 17 -76 14 -79 -11 -11 -151 142 -209 231 -74 111 -163 291 -197
399 -19 62 -23 95 -23 209 0 80 6 161 14 200 19 82 73 212 112 264 54 74 263
291 323 337 52 38 154 111 177 124 4 3 5 -4 2 -15 -3 -11 -11 -20 -18 -20 -7
0 -18 -7 -25 -15 -11 -14 -10 -14 16 -4 16 6 39 13 52 15 22 4 22 4 7 -20 -19
-29 -42 -40 -49 -23 -2 7 -5 5 -5 -5 -1 -9 4 -20 9 -23 17 -10 11 -25 -10 -25
-13 0 -18 -5 -14 -15 3 -8 -1 -28 -9 -45 -24 -47 -1 -35 39 20 27 37 41 49 54
45 10 -3 25 1 34 10 14 14 16 14 22 -10 3 -14 10 -25 15 -25 16 0 10 -26 -25
-96 -18 -38 -39 -87 -47 -109 -7 -22 -16 -44 -20 -50 -9 -13 -46 -133 -53
-170 l-6 -30 14 30 c7 17 20 50 29 75 39 111 74 183 93 191 11 4 28 19 37 33
10 14 24 26 32 26 8 0 15 9 15 19 0 11 13 33 30 49 20 21 26 32 17 36 -6 3 -2
3 10 0 26 -6 43 20 43 65 0 17 2 31 4 31 2 0 11 3 19 6 19 7 32 -43 16 -62 -7
-8 -9 -17 -6 -21 4 -3 1 -15 -5 -27 -18 -31 -17 -158 1 -176 10 -11 11 -15 1
-18 -9 -3 -9 -6 1 -13 11 -7 9 -13 -11 -29 -14 -11 -18 -18 -9 -15 14 5 16 -3
15 -54 -2 -81 11 -64 24 31 6 42 13 85 15 95 2 10 9 45 16 78 7 33 15 65 19
70 4 6 11 29 15 53 6 39 9 43 30 38 13 -3 27 -1 30 4 9 15 27 1 21 -16 -3 -8
-1 -14 5 -14 5 0 12 7 15 15 4 8 12 15 20 15 17 0 18 -17 2 -24 -9 -3 -7 -9 7
-21 18 -14 20 -14 33 11 12 22 12 28 0 35 -10 8 -10 12 5 23 15 12 15 15 2 26
-8 7 -12 17 -8 24 4 6 6 20 5 31 -3 20 -2 20 13 1 8 -11 15 -27 16 -35 0 -9 3
-25 5 -36 2 -11 5 -29 6 -40 1 -11 5 -25 9 -30 5 -6 8 -20 8 -30 0 -53 11
-129 21 -139 5 -5 10 -24 10 -41 0 -18 3 -35 7 -39 4 -3 8 -14 8 -24 1 -9 8
-46 15 -82 7 -36 13 -70 14 -77 1 -7 6 -16 10 -20 5 -4 6 15 2 42 -4 28 -9 97
-11 155 -3 58 -8 124 -11 148 -3 27 -1 42 6 42 6 0 4 10 -6 25 -15 23 -15 25
0 25 11 0 14 4 9 13 -11 18 -14 79 -2 72 5 -4 9 -13 9 -21 0 -8 5 -14 11 -14
5 0 8 -3 6 -7 -3 -5 6 -9 19 -9 21 -2 24 2 19 20 -4 11 -18 31 -31 43 l-25 23
28 -2 c32 -2 43 -14 43 -45 0 -13 4 -23 9 -23 6 0 9 -8 8 -18 0 -10 13 -47 30
-82 18 -36 44 -100 60 -142 15 -43 31 -78 36 -78 9 0 -1 127 -13 160 -5 14
-11 37 -14 52 -2 14 -9 35 -15 46 -6 11 -7 22 -4 26 3 3 -1 14 -9 23 -8 10
-19 25 -23 33 -6 12 -5 13 6 3 7 -7 17 -13 21 -13 15 0 8 18 -17 41 -31 30
-32 44 -2 27 12 -7 25 -11 28 -10 4 1 5 -7 2 -17 -2 -10 3 -26 12 -35 10 -9
15 -19 12 -23 -3 -3 6 -16 20 -29 30 -27 45 -24 20 4 -10 10 -17 23 -17 28 0
5 4 4 8 -2 4 -6 16 -8 26 -4 17 5 15 8 -12 19 -26 11 -31 17 -26 37 4 15 2 24
-6 24 -6 0 -8 -4 -5 -10 3 -5 2 -10 -4 -10 -5 0 -9 9 -8 20 2 23 2 23 29 9 28
-15 33 -4 9 20 -12 12 -21 26 -21 33 0 10 18 -3 61 -44z m-936 22 c-3 -5 -11
-10 -16 -10 -6 0 -7 5 -4 10 3 6 11 10 16 10 6 0 7 -4 4 -10z m481 -48 c-12
-12 -18 8 -10 35 l8 28 4 -28 c2 -16 1 -31 -2 -35z m-81 28 c3 -5 1 -10 -4
-10 -6 0 -11 5 -11 10 0 6 2 10 4 10 3 0 8 -4 11 -10z m-275 -10 c0 -5 -5 -10
-11 -10 -5 0 -7 5 -4 10 3 6 8 10 11 10 2 0 4 -4 4 -10z m267 -57 c-4 -17 -4
-17 -12 0 -4 9 -4 25 0 35 8 16 8 16 12 0 3 -10 3 -26 0 -35z m53 21 c0 -16
-16 -19 -25 -4 -8 13 4 32 16 25 5 -4 9 -13 9 -21z m-324 2 c6 -15 -23 -86
-35 -86 -4 0 -14 11 -21 25 -11 21 -15 23 -22 10 -9 -15 -38 -21 -38 -7 0 4
14 20 32 35 27 24 33 26 40 13 5 -9 16 -16 25 -16 14 0 14 2 -2 20 -17 18 -17
20 -1 20 9 0 19 -6 22 -14z m355 -19 c-13 -13 -26 -3 -16 12 3 6 11 8 17 5 6
-4 6 -10 -1 -17z m-251 -57 c0 -5 -2 -10 -4 -10 -3 0 -8 5 -11 10 -3 6 -1 10
4 10 6 0 11 -4 11 -10z"/>
<path d="M5550 8750 c-6 -11 -8 -20 -6 -20 3 0 10 9 16 20 6 11 8 20 6 20 -3
0 -10 -9 -16 -20z"/>
<path d="M5504 8669 c-14 -28 -24 -53 -22 -55 2 -2 16 21 31 51 15 30 25 55
22 55 -3 0 -16 -23 -31 -51z"/>
<path d="M5465 8589 c-4 -6 -5 -12 -2 -15 2 -3 7 2 10 11 7 17 1 20 -8 4z"/>
<path d="M5436 8525 c-9 -26 -7 -32 5 -12 6 10 9 21 6 23 -2 3 -7 -2 -11 -11z"/>
<path d="M5406 8465 c-9 -26 -7 -32 5 -12 6 10 9 21 6 23 -2 3 -7 -2 -11 -11z"/>
<path d="M6541 8344 c0 -11 3 -14 6 -6 3 7 2 16 -1 19 -3 4 -6 -2 -5 -13z"/>
<path d="M5936 8333 c-6 -14 -5 -15 5 -6 7 7 10 15 7 18 -3 3 -9 -2 -12 -12z"/>
<path d="M6450 7605 c-11 -13 -10 -14 4 -9 9 3 16 10 16 15 0 13 -6 11 -20 -6z"/>
<path d="M6359 7523 c-13 -16 -12 -17 4 -4 9 7 17 15 17 17 0 8 -8 3 -21 -13z"/>
<path d="M5461 7399 c-7 -12 -10 -23 -8 -26 3 -3 11 5 17 17 15 28 8 35 -9 9z"/>
<path d="M4910 7240 c0 -5 5 -10 11 -10 5 0 7 5 4 10 -3 6 -8 10 -11 10 -2 0
-4 -4 -4 -10z"/>
<path d="M5515 6710 c-3 -5 -1 -10 4 -10 6 0 11 5 11 10 0 6 -2 10 -4 10 -3 0
-8 -4 -11 -10z"/>
<path d="M3610 8786 c0 -10 60 -116 66 -116 5 0 -38 84 -55 110 -6 8 -11 11
-11 6z"/>
<path d="M3680 8651 c0 -6 4 -13 10 -16 6 -3 7 1 4 9 -7 18 -14 21 -14 7z"/>
<path d="M3061 8075 c0 -5 6 -21 14 -35 8 -14 14 -20 14 -15 0 6 -6 21 -14 35
-8 14 -14 21 -14 15z"/>
<path d="M3091 8005 c0 -5 6 -21 14 -35 8 -14 14 -20 14 -15 0 6 -6 21 -14 35
-8 14 -14 21 -14 15z"/>
<path d="M3820 7601 c0 -6 4 -13 10 -16 6 -3 7 1 4 9 -7 18 -14 21 -14 7z"/>
<path d="M4265 7010 c-3 -5 -1 -10 4 -10 6 0 11 5 11 10 0 6 -2 10 -4 10 -3 0
-8 -4 -11 -10z"/>
<path d="M3881 6774 c7 -9 23 -20 36 -25 24 -9 32 -29 11 -29 -6 0 -8 -3 -5
-6 4 -4 13 -1 22 6 12 10 15 10 15 -2 0 -8 -6 -20 -12 -27 -11 -11 -10 -13 2
-9 8 3 20 -2 26 -10 17 -23 43 -24 37 -1 -3 10 -9 19 -14 19 -5 0 -9 9 -9 20
0 11 -4 20 -8 20 -5 0 -29 13 -53 30 -49 33 -69 39 -48 14z"/>
<path d="M4090 6690 c0 -5 5 -10 11 -10 5 0 7 5 4 10 -3 6 -8 10 -11 10 -2 0
-4 -4 -4 -10z"/>
<path d="M1957 6655 c-21 -7 -42 -17 -45 -21 -4 -4 2 -4 13 0 11 5 35 12 53
18 17 5 32 11 32 13 0 7 -12 5 -53 -10z"/>
<path d="M3140 6446 c0 -2 7 -7 16 -10 8 -3 12 -2 9 4 -6 10 -25 14 -25 6z"/>
<path d="M3538 6253 c7 -3 16 -2 19 1 4 3 -2 6 -13 5 -11 0 -14 -3 -6 -6z"/>
<path d="M3070 6224 c35 -7 298 -10 294 -2 -3 4 -74 7 -157 7 -84 -1 -145 -3
-137 -5z"/>
<path d="M3405 6210 c28 -12 47 -12 40 0 -3 6 -18 10 -33 9 -24 0 -25 -1 -7
-9z"/>
<path d="M3800 6120 c0 -5 5 -10 11 -10 5 0 7 5 4 10 -3 6 -8 10 -11 10 -2 0
-4 -4 -4 -10z"/>
<path d="M4050 6050 c20 -13 33 -13 25 0 -3 6 -14 10 -23 10 -15 0 -15 -2 -2
-10z"/>
<path d="M3951 6034 c0 -11 3 -14 6 -6 3 7 2 16 -1 19 -3 4 -6 -2 -5 -13z"/>
<path d="M4015 6030 c6 -9 -8 -14 -27 -11 -5 0 -8 -6 -8 -14 0 -8 5 -15 10
-15 6 0 10 4 10 9 0 5 9 13 20 16 20 6 19 25 -1 25 -6 0 -7 -4 -4 -10z"/>
<path d="M3425 5881 c-6 -4 -43 -21 -83 -36 -39 -16 -70 -30 -69 -32 4 -4 188
64 196 72 8 9 -35 5 -44 -4z"/>
<path d="M3990 5819 c0 -5 5 -7 10 -4 6 3 10 8 10 11 0 2 -4 4 -10 4 -5 0 -10
-5 -10 -11z"/>
<path d="M2260 5570 c-34 -7 -34 -7 -5 -8 17 0 44 4 60 8 27 7 27 8 5 8 -14
-1 -41 -4 -60 -8z"/>
<path d="M2103 5563 c15 -2 39 -2 55 0 15 2 2 4 -28 4 -30 0 -43 -2 -27 -4z"/>
<path d="M2200 5559 c0 -5 5 -7 10 -4 6 3 10 8 10 11 0 2 -4 4 -10 4 -5 0 -10
-5 -10 -11z"/>
<path d="M2575 5270 c-3 -6 1 -7 9 -4 18 7 21 14 7 14 -6 0 -13 -4 -16 -10z"/>
<path d="M5503 6427 c-3 -5 -1 -7 5 -3 6 3 13 2 17 -3 6 -10 35 -4 35 8 0 11
-50 10 -57 -2z"/>
<path d="M6048 6313 c6 -2 18 -2 25 0 6 3 1 5 -13 5 -14 0 -19 -2 -12 -5z"/>
<path d="M5895 6303 c-34 -8 -42 -24 -10 -18 17 3 55 9 85 14 l55 9 -55 0
c-30 0 -64 -2 -75 -5z"/>
<path d="M5590 6250 c0 -12 28 -21 35 -11 2 5 -4 11 -15 14 -11 3 -20 2 -20
-3z"/>
<path d="M6218 6103 c6 -2 18 -2 25 0 6 3 1 5 -13 5 -14 0 -19 -2 -12 -5z"/>
<path d="M5430 5950 c20 -13 33 -13 25 0 -3 6 -14 10 -23 10 -15 0 -15 -2 -2
-10z"/>
<path d="M5395 5940 c3 -5 8 -10 11 -10 2 0 4 5 4 10 0 6 -5 10 -11 10 -5 0
-7 -4 -4 -10z"/>
<path d="M7378 5933 c6 -2 18 -2 25 0 6 3 1 5 -13 5 -14 0 -19 -2 -12 -5z"/>
<path d="M7433 5923 c9 -2 23 -2 30 0 6 3 -1 5 -18 5 -16 0 -22 -2 -12 -5z"/>
<path d="M7493 5923 c9 -2 23 -2 30 0 6 3 -1 5 -18 5 -16 0 -22 -2 -12 -5z"/>
<path d="M5350 5791 c0 -5 5 -13 10 -16 6 -3 10 -2 10 4 0 5 -4 13 -10 16 -5
3 -10 2 -10 -4z"/>
<path d="M5416 5793 c-12 -12 -5 -23 14 -23 11 0 20 4 20 9 0 11 -26 22 -34
14z"/>
<path d="M6727 5439 c7 -7 15 -10 18 -7 3 3 -2 9 -12 12 -14 6 -15 5 -6 -5z"/>
<path d="M6798 5423 c7 -3 16 -2 19 1 4 3 -2 6 -13 5 -11 0 -14 -3 -6 -6z"/>
<path d="M6843 5413 c9 -2 25 -2 35 0 9 3 1 5 -18 5 -19 0 -27 -2 -17 -5z"/>
<path d="M6920 5410 c0 -5 4 -10 9 -10 6 0 13 5 16 10 3 6 -1 10 -9 10 -9 0
-16 -4 -16 -10z"/>
<path d="M5150 5720 c0 -5 5 -10 10 -10 6 0 10 5 10 10 0 6 -4 10 -10 10 -5 0
-10 -4 -10 -10z"/>
<path d="M5160 5651 c0 -5 7 -11 15 -15 8 -3 15 -1 15 3 0 5 -7 11 -15 15 -8
3 -15 1 -15 -3z"/>
<path d="M4246 5632 c-7 -12 4 -52 15 -52 5 0 6 12 3 28 -8 33 -10 36 -18 24z"/>
<path d="M4910 5615 c0 -8 4 -15 10 -15 5 0 7 7 4 15 -4 8 -8 15 -10 15 -2 0
-4 -7 -4 -15z"/>
<path d="M5095 5580 c3 -5 8 -10 11 -10 2 0 4 5 4 10 0 6 -5 10 -11 10 -5 0
-7 -4 -4 -10z"/>
<path d="M5202 5551 c-11 -6 -9 -9 6 -13 15 -4 19 -2 15 8 -6 16 -4 16 -21 5z"/>
<path d="M4077 5523 c-10 -9 -9 -23 2 -23 5 0 11 7 15 15 5 15 -5 20 -17 8z"/>
<path d="M4037 5454 c-10 -13 -14 -24 -10 -24 9 0 36 40 31 45 -2 2 -11 -8
-21 -21z"/>
<path d="M5307 4565 c-2 -14 -1 -40 3 -58 7 -27 8 -24 9 26 1 61 -4 73 -12 32z"/>
<path d="M5312 4404 c-1 -28 -4 -67 -7 -85 -5 -31 -5 -32 5 -9 6 13 9 51 7 85
l-3 60 -2 -51z"/>
<path d="M4540 4003 c0 -13 5 -23 10 -23 13 0 13 11 0 30 -8 12 -10 11 -10 -7z"/>
<path d="M4280 5685 c7 -9 15 -13 17 -11 7 7 -7 26 -19 26 -6 0 -6 -6 2 -15z"/>
<path d="M7246 4724 c-123 -34 -284 -105 -531 -236 -115 -62 -237 -125 -270
-140 -103 -49 -110 -54 -113 -89 -6 -53 55 -128 213 -259 152 -128 192 -168
309 -307 42 -51 91 -102 109 -114 17 -13 48 -38 67 -57 19 -18 55 -45 80 -59
25 -14 70 -40 100 -58 86 -51 226 -103 324 -120 174 -30 403 -13 599 46 101
30 147 87 147 182 0 22 5 27 23 27 38 0 121 47 176 100 64 61 65 82 12 222
-21 57 -44 121 -51 142 -36 111 -130 284 -198 364 -83 97 -422 306 -563 346
-57 16 -232 37 -303 35 -22 0 -81 -11 -130 -25z m389 -79 c132 -28 398 -185
528 -311 96 -93 159 -209 228 -417 53 -160 58 -200 32 -229 -21 -23 -31 -23
-55 5 l-20 22 17 -29 c17 -28 17 -30 0 -43 -10 -7 -35 -15 -54 -18 -91 -14
-105 -19 -112 -47 -4 -15 -4 -30 -1 -33 11 -11 1 -80 -15 -97 -9 -10 -32 -23
-52 -29 -20 -6 -41 -15 -46 -20 -6 -4 -55 -18 -110 -30 -216 -48 -439 -32
-615 45 -171 74 -366 226 -474 369 -90 119 -180 210 -260 263 -45 29 -73 54
-71 62 3 7 1 11 -4 8 -5 -3 -21 4 -35 15 -20 16 -24 24 -16 34 9 10 4 15 -20
20 -58 13 -21 18 42 6 105 -20 138 -31 138 -45 0 -8 7 -17 16 -20 12 -4 15 -2
10 9 -6 18 -7 18 52 4 154 -35 219 -51 237 -59 11 -5 54 -19 95 -31 41 -12
113 -37 159 -56 46 -18 86 -32 88 -30 2 2 -26 18 -62 35 -36 18 -65 37 -65 42
0 6 -10 10 -21 10 -12 0 -32 10 -44 23 -48 47 -104 91 -120 93 -9 1 -24 9 -33
17 -10 8 -26 17 -37 19 -14 2 -20 11 -20 31 l-1 29 186 -5 c155 -4 210 -10
339 -37 85 -17 163 -36 173 -41 11 -6 24 -8 31 -6 19 6 -77 34 -208 61 -155
32 -349 57 -449 58 -54 0 -84 5 -94 14 -7 8 -19 14 -25 14 -8 0 -7 -3 2 -9 10
-7 10 -10 1 -16 -7 -4 -16 -2 -20 5 -5 7 -17 10 -30 7 -24 -6 -50 1 -50 13 0
4 17 12 38 18 20 5 29 10 20 11 -10 1 -18 6 -18 11 0 6 -5 10 -11 10 -5 0 -7
-4 -4 -10 4 -6 -11 -10 -37 -11 -24 0 -50 -2 -58 -5 -59 -15 -70 -16 -70 -2 0
8 12 21 28 28 15 8 41 24 57 35 26 19 168 90 350 176 33 15 80 33 105 39 25 7
68 18 95 25 28 8 59 16 70 19 35 9 228 -3 300 -19z m-745 -389 c0 -2 3 -11 6
-20 9 -23 -9 -20 -24 4 -10 17 -10 20 3 20 8 0 15 -2 15 -4z"/>
<path d="M7015 4440 c-4 -6 11 -7 42 -3 63 8 67 13 10 13 -25 0 -49 -4 -52
-10z"/>
<path d="M7215 4440 c3 -5 8 -10 11 -10 2 0 4 5 4 10 0 6 -5 10 -11 10 -5 0
-7 -4 -4 -10z"/>
<path d="M6940 4423 c0 -6 9 -9 20 -6 30 8 32 18 4 18 -13 0 -24 -5 -24 -12z"/>
<path d="M6792 4409 c-9 -14 -20 -18 -42 -14 -28 5 -41 -7 -21 -20 11 -6 91
26 91 37 0 17 -17 15 -28 -3z"/>
<path d="M6860 4410 c0 -5 7 -10 16 -10 8 0 12 5 9 10 -3 6 -10 10 -16 10 -5
0 -9 -4 -9 -10z"/>
<path d="M6930 4230 c0 -5 5 -10 11 -10 5 0 7 5 4 10 -3 6 -8 10 -11 10 -2 0
-4 -4 -4 -10z"/>
<path d="M6525 4161 c-9 -16 -5 -20 34 -31 28 -8 31 -7 30 13 0 12 -3 16 -6
10 -7 -18 -30 -16 -41 3 -7 12 -11 13 -17 5z"/>
<path d="M7670 4160 c8 -5 20 -10 25 -10 6 0 3 5 -5 10 -8 5 -19 10 -25 10 -5
0 -3 -5 5 -10z"/>
<path d="M7720 4146 c0 -2 7 -7 16 -10 8 -3 12 -2 9 4 -6 10 -25 14 -25 6z"/>
<path d="M7917 4059 c7 -7 15 -10 18 -7 3 3 -2 9 -12 12 -14 6 -15 5 -6 -5z"/>
<path d="M7957 4039 c7 -7 15 -10 18 -7 3 3 -2 9 -12 12 -14 6 -15 5 -6 -5z"/>
<path d="M7330 3956 c0 -2 7 -7 16 -10 8 -3 12 -2 9 4 -6 10 -25 14 -25 6z"/>
<path d="M8100 3940 c0 -5 5 -10 11 -10 5 0 7 5 4 10 -3 6 -8 10 -11 10 -2 0
-4 -4 -4 -10z"/>
<path d="M8095 3600 c3 -4 14 -10 25 -13 11 -3 18 -2 15 3 -3 4 -14 10 -25 13
-11 3 -18 2 -15 -3z"/>
<path d="M8150 3576 c0 -2 7 -7 16 -10 8 -3 12 -2 9 4 -6 10 -25 14 -25 6z"/>
<path d="M5620 3598 c-5 -13 -16 -59 -24 -103 -14 -78 -20 -116 -51 -320 -9
-55 -25 -156 -37 -225 -17 -103 -21 -169 -22 -375 l-1 -250 47 -133 c25 -73
61 -158 80 -189 53 -90 173 -210 273 -275 80 -52 309 -171 465 -242 30 -14
120 -59 199 -100 119 -63 151 -76 190 -76 27 0 56 7 70 16 38 27 79 126 87
211 l7 75 36 -6 c102 -19 106 -19 137 7 42 35 59 81 88 232 32 164 42 331 26
428 -12 71 -50 178 -92 260 -36 72 -212 299 -280 362 -87 81 -287 197 -421
245 -88 32 -279 121 -337 158 -65 41 -125 89 -240 192 -91 82 -157 130 -178
130 -7 0 -17 -10 -22 -22z m41 -338 c5 0 9 12 9 26 0 27 25 30 25 3 0 -8 3
-18 7 -24 7 -12 24 -126 38 -265 21 -193 101 -481 176 -632 24 -49 46 -88 49
-88 3 0 -9 28 -26 62 -86 170 -150 431 -177 726 -8 81 -1 116 14 70 4 -13 20
-36 35 -52 16 -17 29 -36 29 -43 0 -7 4 -13 10 -13 5 0 12 -11 16 -25 3 -14
10 -25 15 -25 5 0 18 -15 29 -32 13 -22 20 -27 20 -16 0 28 23 12 66 -45 21
-29 44 -56 51 -60 7 -4 26 -27 42 -50 30 -44 87 -107 97 -107 9 0 -140 205
-156 215 -6 3 -7 11 -4 17 5 7 2 8 -6 3 -10 -6 -12 -3 -8 13 4 13 2 20 -4 16
-5 -3 -12 3 -15 15 -3 12 -13 22 -22 22 -14 1 -13 2 2 6 9 2 17 9 17 15 0 5
-6 8 -14 5 -9 -4 -16 3 -20 16 -3 12 -1 24 4 25 13 5 13 32 0 32 -5 0 -10 -4
-10 -10 0 -5 -8 -10 -17 -10 -14 0 -13 3 5 21 23 20 22 39 -2 39 -7 0 -22 18
-34 40 -19 37 -20 42 -5 47 9 4 21 0 27 -9 6 -8 17 -13 24 -10 8 2 27 -10 44
-27 17 -17 37 -31 44 -31 13 0 19 -13 15 -33 -1 -5 3 -6 8 -3 5 4 16 -1 24 -9
9 -8 20 -15 26 -15 6 0 20 -9 32 -21 11 -11 22 -19 24 -17 8 8 -40 55 -62 62
-13 4 -23 13 -23 21 0 7 -21 30 -47 51 -51 42 -143 132 -143 140 0 3 15 -3 33
-14 73 -45 339 -174 426 -206 91 -34 210 -97 341 -181 114 -73 305 -309 372
-460 52 -117 71 -289 49 -440 -24 -158 -43 -240 -63 -277 -25 -44 -29 -44
-134 -17 -54 14 -56 16 -108 142 -29 71 -26 37 5 -48 27 -75 29 -86 16 -99
-12 -12 -14 -33 -10 -99 7 -101 -16 -165 -66 -191 -30 -16 -32 -15 -168 52
-76 37 -164 79 -196 92 -62 25 -332 164 -357 184 -8 7 -28 18 -45 25 -45 19
-171 118 -225 178 -87 95 -156 243 -185 394 -18 96 -20 358 -4 493 13 108 53
361 67 419 1 4 3 24 4 45 1 36 1 36 5 5 2 -18 8 -33 14 -33z m206 -6 c-4 -4
-14 1 -22 12 -22 29 -18 41 7 17 12 -13 19 -26 15 -29z m-47 -27 c0 -16 -18 3
-23 25 -6 22 -5 22 8 4 8 -11 15 -24 15 -29z m71 0 c-1 -12 -15 -9 -19 4 -3 6
1 10 8 8 6 -3 11 -8 11 -12z m-48 -48 c4 -16 3 -18 -9 -8 -16 13 -19 29 -5 29
5 0 11 -9 14 -21z m47 -59 c0 -18 -19 -11 -30 11 -11 19 -10 20 9 9 12 -6 21
-15 21 -20z"/>
<path d="M6230 2980 c46 -25 59 -25 27 0 -14 11 -33 20 -44 20 -12 -1 -7 -7
17 -20z"/>
<path d="M5930 2892 c0 -5 7 -15 15 -22 8 -7 15 -8 15 -2 0 5 -7 15 -15 22 -8
7 -15 8 -15 2z"/>
<path d="M6200 2654 c1 -13 29 -48 34 -43 2 2 -4 15 -15 28 -10 13 -19 19 -19
15z"/>
<path d="M7011 1774 c0 -11 3 -14 6 -6 3 7 2 16 -1 19 -3 4 -6 -2 -5 -13z"/>
</g>
</svg>
